<?xml version="1.0" standalone="no"?><!DOCTYPE svg PUBLIC "-//W3C//DTD SVG 1.1//EN" "http://www.w3.org/Graphics/SVG/1.1/DTD/svg11.dtd"><svg t="1620471535015" class="icon" viewBox="0 0 1024 1024" version="1.1" xmlns="http://www.w3.org/2000/svg" p-id="1217" xmlns:xlink="http://www.w3.org/1999/xlink" width="200" height="200"><defs><style type="text/css"></style></defs><path d="M128 704v192h192v64H64v-256h64z m832 0v256h-256v-64h192v-192h64zM512 288c129.6 0 246.912 74.688 352 224-105.088 149.312-222.4 224-352 224S265.088 661.312 160 512C265.088 362.688 382.4 288 512 288z m0 64c-93.056 0-180.672 48.384-264.128 150.016L239.808 512l8.064 9.984c79.488 96.832 162.752 145.28 250.88 149.696L512 672c93.056 0 180.672-48.384 264.128-150.016L784.128 512l-8-9.984c-79.488-96.832-162.752-145.28-250.88-149.696L512 352z m0 48a112 112 0 1 1 0 224 112 112 0 0 1 0-224z m0 64a48 48 0 1 0 0 96 48 48 0 0 0 0-96zM320 64v64H128v192H64V64h256z m640 0v256h-64V128h-192V64h256z" fill="#2C374D" p-id="1218"></path></svg>