<?xml version="1.0" standalone="no"?>
<!DOCTYPE svg PUBLIC "-//W3C//DTD SVG 20010904//EN"
 "http://www.w3.org/TR/2001/REC-SVG-20010904/DTD/svg10.dtd">
<svg version="1.0" xmlns="http://www.w3.org/2000/svg"
 width="502.000000pt" height="398.000000pt" viewBox="0 0 502.000000 398.000000"
 preserveAspectRatio="xMidYMid meet">

<g transform="translate(0.000000,398.000000) scale(0.100000,-0.100000)"
fill="#000000" stroke="none">
<path d="M760 3593 c-42 -16 -141 -98 -169 -140 -37 -56 -68 -149 -83 -253 -7
-47 -18 -82 -30 -95 -17 -18 -20 -19 -46 -5 -47 27 -75 93 -80 188 -4 81 -3
86 33 157 40 77 42 115 6 96 -24 -13 -51 -59 -80 -139 -30 -81 -25 -152 19
-236 47 -93 43 -113 -44 -199 -79 -80 -134 -173 -161 -277 -19 -71 -19 -242
-1 -304 31 -103 187 -344 300 -465 97 -102 331 -242 601 -358 117 -50 122 -51
198 -47 61 4 84 1 103 -11 26 -17 64 -84 64 -112 0 -10 12 -66 26 -125 28
-111 27 -150 -3 -164 -10 -4 -65 -10 -123 -13 -92 -5 -105 -8 -108 -25 -2 -10
1 -22 7 -25 6 -4 95 -8 199 -9 158 -2 191 0 201 12 17 20 7 34 -40 53 -22 8
-44 24 -50 34 -11 22 -50 213 -56 279 -6 65 9 80 92 90 74 10 125 25 190 59
79 42 103 27 201 -124 38 -59 95 -143 126 -188 57 -81 72 -127 46 -143 -7 -4
-35 -13 -63 -19 -39 -9 -50 -16 -50 -31 0 -18 10 -19 218 -20 177 -2 220 1
232 12 29 30 7 41 -90 46 -122 7 -157 24 -213 109 -255 383 -262 394 -262 430
0 65 20 70 210 54 98 -9 130 -22 161 -67 59 -87 119 -129 228 -162 73 -22 123
-20 202 7 123 42 239 128 323 241 37 50 95 75 171 76 98 1 244 26 529 91 48
11 115 32 147 46 97 42 147 20 179 -82 12 -39 44 -120 173 -440 72 -180 77
-203 47 -230 -17 -16 -40 -21 -106 -24 -59 -2 -87 -7 -96 -18 -10 -12 -9 -18
7 -29 15 -11 67 -13 289 -8 284 7 317 12 286 48 -10 13 -36 16 -129 16 -159 0
-154 -4 -227 185 -23 61 -81 209 -129 330 -48 121 -89 238 -92 261 -4 37 -1
43 32 72 20 18 73 51 118 73 193 98 293 188 359 324 41 87 58 157 58 242 0 90
-78 226 -158 274 -111 66 -110 87 10 211 127 130 248 268 248 284 0 7 -7 20
-16 28 -16 17 -55 16 -249 -5 -49 -6 -133 -14 -185 -19 -96 -8 -363 -37 -605
-65 -71 -8 -238 -26 -370 -40 -132 -14 -274 -29 -315 -35 -74 -9 -207 -24
-510 -55 -85 -9 -182 -22 -215 -30 -33 -8 -130 -19 -215 -24 -85 -6 -182 -13
-215 -15 -33 -3 -150 -15 -260 -27 -110 -13 -245 -23 -300 -22 -588 7 -655 10
-675 28 -27 24 -26 92 1 181 36 120 77 174 172 228 31 18 47 34 47 46 0 20
-11 23 -40 13z m3798 -225 c20 -20 14 -58 -14 -92 -105 -127 -355 -354 -474
-431 -116 -75 -247 -145 -273 -145 -14 0 -33 3 -42 7 -24 9 -72 114 -91 200
-19 86 -55 133 -101 133 -73 0 -614 -310 -848 -486 -38 -29 -88 -57 -110 -62
-22 -6 -104 -13 -182 -17 l-142 -7 -26 27 c-26 25 -26 29 -18 88 13 99 8 274
-12 384 -16 94 -17 104 -2 127 9 13 31 29 49 35 33 10 513 64 1306 146 81 9
199 22 262 30 147 18 275 31 474 50 88 9 162 18 165 20 9 10 67 5 79 -7z
m-2453 -272 c45 -19 55 -41 71 -155 40 -279 -11 -579 -156 -931 -85 -204 -205
-358 -322 -410 -95 -42 -350 -50 -420 -14 -37 19 -42 44 -34 182 4 64 11 359
16 654 6 296 15 549 20 562 16 44 47 54 190 66 74 6 221 17 325 26 105 8 206
18 225 23 49 12 47 13 85 -3z m-1074 -75 c24 -29 25 -103 4 -227 -20 -111 -47
-161 -105 -194 -88 -49 -267 -26 -291 37 -10 28 13 60 51 68 54 12 87 77 57
116 -24 31 -51 38 -95 27 -59 -15 -82 6 -82 73 0 117 28 130 263 127 174 -3
179 -4 198 -27z m150 -2 c37 -19 41 -53 30 -244 -6 -99 -16 -400 -21 -670 -10
-487 -10 -490 -32 -508 -32 -26 -66 -18 -206 47 -65 31 -122 56 -126 56 -4 0
-67 35 -139 77 -152 90 -249 176 -336 297 -142 200 -166 251 -182 384 -21 192
19 337 125 451 86 92 181 128 207 79 6 -12 15 -69 19 -128 12 -151 22 -183 83
-248 58 -61 107 -87 184 -98 108 -14 206 44 264 157 33 65 39 94 48 214 8 95
12 112 31 127 26 21 26 21 51 7z m2368 -58 c21 -13 8 -93 -27 -182 -17 -41
-45 -112 -63 -159 -39 -102 -169 -379 -197 -417 -11 -16 -46 -73 -77 -128 -70
-122 -231 -355 -284 -412 -63 -67 -124 -108 -205 -138 -67 -24 -86 -27 -155
-22 -152 10 -268 89 -290 198 -17 83 1 232 40 325 33 78 94 169 163 242 66 70
274 244 361 302 44 29 96 65 115 80 37 29 235 144 435 254 116 63 155 75 184
57z m852 -74 c119 -61 174 -180 149 -322 -39 -215 -109 -299 -385 -458 -91
-53 -119 -60 -157 -41 -35 18 -35 19 -108 215 -34 90 -73 190 -87 221 -19 43
-24 66 -19 92 8 40 25 53 137 110 41 21 131 78 200 126 148 105 169 110 270
57z m-750 -108 c23 -24 29 -40 29 -74 0 -36 -5 -48 -31 -69 -17 -14 -41 -26
-55 -26 -27 0 -64 32 -64 55 0 28 42 125 58 135 26 14 32 13 63 -21z m81 -226
c9 -8 37 -69 63 -136 26 -67 67 -173 92 -234 79 -199 74 -203 -372 -298 -135
-29 -328 -53 -352 -44 -36 14 -31 64 16 136 71 111 149 247 220 390 75 150 86
162 161 178 19 4 46 14 60 21 29 16 87 10 112 -13z m-1271 -143 c33 -18 22
-49 -42 -113 -34 -34 -73 -80 -89 -102 -63 -92 -126 -244 -139 -341 -14 -93
-31 -109 -117 -109 -53 0 -68 4 -80 19 -22 31 -17 58 31 148 50 95 113 259
146 378 31 115 51 130 175 130 53 0 104 -5 115 -10z"/>
<path d="M10 10 c0 -5 5 -10 10 -10 6 0 10 5 10 10 0 6 -4 10 -10 10 -5 0 -10
-4 -10 -10z"/>
</g>
</svg>
